<svg width="32" height="44" viewBox="0 0 32 44" fill="none" xmlns="http://www.w3.org/2000/svg">
<rect width="32" height="44" fill="#C4C4C4" fill-opacity="0.01"/>
<path fill-rule="evenodd" clip-rule="evenodd" d="M20 40C20 42.2091 18.2091 44 16 44C13.7909 44 12 42.2091 12 40C12 37.7909 13.7909 36 16 36C18.2091 36 20 37.7909 20 40Z" fill="#27AE60"/>
<path d="M15 32H17L16.5 35H15.5L15 32Z" fill="#27AE60"/>
<path fill-rule="evenodd" clip-rule="evenodd" d="M16 32C24.8366 32 32 24.8366 32 16C32 7.16344 24.8366 0 16 0C7.16344 0 0 7.16344 0 16C0 24.8366 7.16344 32 16 32Z" fill="#27AE60"/>
<path d="M16 8C11.6 8 8 11.6 8 16C8 20.4 11.6 24 16 24C20.4 24 24 20.4 24 16C24 11.6 20.4 8 16 8ZM16 22.7C12.3 22.7 9.3 19.7 9.3 16C9.3 12.3 12.3 9.3 16 9.3C19.7 9.3 22.7 12.3 22.7 16C22.7 19.7 19.7 22.7 16 22.7Z" fill="#F3F4F6"/>
<path d="M17.5062 9.21047C16.9799 9.1052 16.5588 8.99994 16.0325 8.99994L9.92725 19.5263C10.1378 19.9473 10.4536 20.3684 10.8746 20.7894L17.5062 9.21047Z" fill="#F3F4F6"/>
<path d="M22.7687 14.1577L17.7161 22.7893C18.4529 22.5788 19.1897 22.263 19.9266 21.842L22.9792 16.5788C23.0845 15.7367 22.9792 14.8946 22.7687 14.1577Z" fill="#F3F4F6"/>
<path d="M22.0317 12.4737C21.8212 12.0527 21.5054 11.6316 21.0843 11.2106L14.3475 22.7895C14.8738 22.8948 15.4001 23 15.8212 23L22.0317 12.4737Z" fill="#F3F4F6"/>
<path d="M9.18996 17.9473L14.2426 9.21042C13.5057 9.42095 12.7689 9.73673 12.0321 10.1578L8.97943 15.5262C8.97943 16.3683 8.97943 17.1052 9.18996 17.9473Z" fill="#F3F4F6"/>
<path d="M20.1372 10.3685C19.9266 10.1579 19.7161 10.0527 19.5056 9.94741C19.2951 9.84215 19.0845 9.73689 18.874 9.63162L11.9266 21.7369C12.1372 21.8421 12.3477 21.9474 12.5582 22.1579C12.7687 22.2632 12.9793 22.3685 13.1898 22.4737L20.1372 10.3685Z" fill="#F3F4F6"/>
</svg>
